<?xml version="1.0" encoding="utf-8"?>
<!-- Generator: Adobe Illustrator 19.0.0, SVG Export Plug-In . SVG Version: 6.00 Build 0)  -->
<svg version="1.1" id="YouTube_Logo" xmlns="http://www.w3.org/2000/svg" xmlns:xlink="http://www.w3.org/1999/xlink" x="0px"
	 y="0px" viewBox="0 0 502 210" style="enable-background:new 0 0 502 210;" xml:space="preserve">
<g id="You">
</g>
<g id="Tube">
	<g>
		<path d="M168.9,146c-4,5.7-7.3,8.8-10.9,8.8c-2.4,0-3.6-1-4.1-3.8c0-1,0-2.8,0-7V69h-19v80c0,6.9,0.9,11.7,2.1,14.7
			c2,5,6.1,7.7,11.9,7.7c6.7,0,12.8-4.2,20-12.4v11h19V69h-19V146z"/>
		<path d="M93.9,68.3c-9.1,0-15.9,2.8-21,9.7c-3.9,5.1-6,13.3-6,24.1l0,35.9c0,10.7,1.9,18.1,5.8,23.2c5.1,6.9,13.2,10.5,21.2,10.5
			s16.3-3.6,21.4-10.5c3.8-5.1,5.6-12.5,5.6-23.2v-36c0-10.8-2.2-18.9-6-24C109.8,71.1,101.9,68.3,93.9,68.3z M93.9,155
			c-5.9,0-9-5-8-15v-40c-1-10,2.1-14.7,8-14.7s9,4.7,8,14.7l0,40C102.9,150,99.8,155,93.9,155z"/>
		<path d="M49.9,35l-14,52.7L21.9,35h-21c4.3,12.6,25,80,25,80v55h20v-55l25-80H49.9z"/>
		<path d="M383.3,85.1c-3,0-6.4,1.6-9.4,4.6l0,60.6c3,3,6.5,4.6,9.4,4.6c5.2,0,7.6-3.8,7.6-13.8V98C390.9,88,388.5,85.1,383.3,85.1z
			"/>
		<path d="M457.9,97.1c0-9.2-2.4-12-8.4-12c-6,0-8.6,2.5-8.6,11.9V108l17,0V97.1z"/>
		<path d="M498.9,45.9c0,0-2.9-20.5-11.9-29.5C475.7,4.6,463,4.5,457.1,3.8c-41.8-3-104.5-3-104.5-3h-0.1c0,0-62.7,0-104.5,3
			c-5.8,0.7-18.6,0.8-29.9,12.6c-9,9-11.9,29.5-11.9,29.5s-3,24.1-3,48.1v22.6c0,24.1,3,48.1,3,48.1s2.9,20.5,11.9,29.5
			c11.4,11.8,26.3,11.5,32.9,12.7c23.9,2.3,101.5,3,101.5,3s62.7-0.1,104.5-3.1c5.8-0.7,18.6-0.8,29.9-12.6c9-9,11.9-29.5,11.9-29.5
			s3-24.1,3-48.1V94C501.9,70,498.9,45.9,498.9,45.9z M268.9,170h-20V55h-21V36l63,0v19h-22V170z M340.9,170h-19v-11
			c-7.2,8.3-13.3,12.4-20,12.4c-5.8,0-9.9-2.8-11.9-7.7c-1.2-3-2.1-7.8-2.1-14.7V70h19v74c0,4.2,0,6,0,7c0.4,2.8,1.6,3.8,4.1,3.8
			c3.6,0,6.9-3.2,10.9-8.8V70h19V170z M409.9,140c0,9.2-0.8,15.8-2,20c-2.4,7.4-7.7,11.3-14.9,11.3c-6.4,0-13-3.9-19.1-11.4l0,10.1
			h-18V36h18l0,43.7c5.8-7.2,12.5-11.3,19.1-11.3c7.2,0,12.1,4.2,14.5,11.6c1.2,4,2.4,10.5,2.4,20V140z M449.6,154.8
			c4.5,0,7.1-2.4,8.1-7.3c0.2-1,0.1-5.3,0.1-12.6h19v2.8c0,5.8-0.5,10-0.6,11.8c-0.6,4-2,7.6-4.2,10.8c-5,7.3-12.4,10.8-21.9,10.8
			c-9.5,0-16.7-3.4-21.9-10.2c-3.8-5-6.3-12.4-6.3-23.1v-35c0-10.7,2.2-18.9,6.1-24c5.2-6.8,12.4-10.5,21.7-10.5
			c9.1,0,16.3,3.6,21.4,10.5c3.8,5.1,5.9,12.9,5.9,23.5l0,20.4h-36v18C440.8,150.2,443.4,154.8,449.6,154.8z"/>
	</g>
</g>
</svg>
